#!OML:ASF F:\VICON\USERDATA\INSTALL\rory3\rory3.ASF
:FULLY-SPECIFIED
:DEGREES
531
root 4.65336 15.8836 1.81631 20.2616 -5.71633 -3.4068
lowerback 6.98048 -0.514656 2.80203
upperback 6.58326 -0.573415 -0.180652
thorax 2.8716 -0.181083 -1.73184
lowerneck -19.2825 -1.22293 -0.70003
upperneck 39.496 -0.889317 -1.88395
head 17.9327 -0.764088 -0.940914
rclavicle -1.37161e-014 -7.15625e-015
rhumerus -46.1342 58.0679 -73.5695
rradius 80.0795
rwrist -27.8381
rhand -10.4118 -45.4971
rfingers 7.12502
rthumb 15.587 -74.889
lclavicle -1.37161e-014 -7.15625e-015
lhumerus -21.1509 -73.7518 60.5065
lradius 76.2623
lwrist 72.5643
lhand -36.1922 -30.6638
lfingers 7.12502
lthumb -9.29528 -0.888698
rfemur -72.227 -0.115329 17.1901
rtibia 35.4131
rfoot 37.4756 -0.641763
rtoes 3.89039
lfemur -54.4118 1.34046 -28.42
ltibia 59.233
lfoot -23.9181 5.49285
ltoes 12.816
532
root 4.66064 15.8933 1.82223 20.3285 -5.70602 -3.43009
lowerback 6.91751 -0.52849 2.9001
upperback 6.58374 -0.58973 -0.171951
thorax 2.90598 -0.185129 -1.77759
lowerneck -19.2719 -1.24253 -0.808329
upperneck 39.5522 -0.880828 -1.87116
head 17.9639 -0.775295 -0.915011
rclavicle -3.97569e-015 1.47101e-014
rhumerus -46.8931 58.432 -73.9432
rradius 79.9123
rwrist -27.6392
rhand -10.4611 -45.1629
rfingers 7.12502
rthumb 15.5396 -74.5585
lclavicle -3.97569e-015 1.47101e-014
lhumerus -22.5031 -74.0206 61.6883
lradius 75.9099
lwrist 72.5437
lhand -35.9575 -30.356
lfingers 7.12502
lthumb -9.06876 -0.570995
rfemur -72.2606 -0.330146 17.4609
rtibia 35.4161
rfoot 37.4301 -0.396264
rtoes 4.19168
lfemur -54.3975 1.28138 -28.4152
ltibia 59.1639
lfoot -23.9563 5.47351
ltoes 12.8597
533
root 4.66976 15.9041 1.8274 20.3916 -5.66972 -3.4669
lowerback 6.88664 -0.544812 3.0235
upperback 6.54316 -0.606862 -0.141327
thorax 2.87955 -0.190412 -1.8144
lowerneck -19.0479 -1.23586 -0.92006
upperneck 39.4824 -0.823515 -1.88534
head 17.8667 -0.771375 -0.88556
rclavicle 9.54166e-015 -7.95139e-015
rhumerus -48.0795 58.6145 -74.8078
rradius 79.6409
rwrist -27.2302
rhand -10.6544 -44.658
rfingers 7.12502
rthumb 15.3534 -74.0679
lclavicle 9.54166e-015 -7.95139e-015
lhumerus -25.7321 -73.953 64.7263
lradius 75.5641
lwrist 72.0904
lhand -35.7717 -30.3519
lfingers 7.12502
lthumb -8.88946 -0.559169
rfemur -72.2521 -0.606077 17.801
rtibia 35.3914
rfoot 37.3959 0.221066
rtoes 4.10653
lfemur -54.3687 1.20087 -28.3915
ltibia 59.082
lfoot -23.951 5.48575
ltoes 13.1114
534
root 4.67354 15.9048 1.83217 20.4528 -5.69867 -3.50399
lowerback 6.8922 -0.499884 3.07543
upperback 6.47348 -0.544408 -0.104664
thorax 2.80695 -0.160009 -1.808
lowerneck -18.6993 -1.29415 -1.16015
upperneck 39.3354 -0.909963 -1.68099
head 17.6946 -0.812037 -0.758175
rclavicle 1.17283e-014 -7.15625e-015
rhumerus -49.4722 58.5688 -75.7378
rradius 79.5646
rwrist -26.9073
rhand -10.8397 -44.6153
rfingers 7.12502
rthumb 15.1749 -74.0389
lclavicle 1.17283e-014 -7.15625e-015
lhumerus -26.8717 -74.7376 65.5879
lradius 75.379
lwrist 72.1689
lhand -35.7326 -30.242
lfingers 7.12502
lthumb -8.85172 -0.447645
rfemur -72.3041 -0.731057 18.0312
rtibia 35.372
rfoot 37.4256 0.125878
rtoes 4.5954
lfemur -54.385 1.23596 -28.3895
ltibia 59.0294
lfoot -23.9436 5.4865
ltoes 13.278
535
root 4.6746 15.9067 1.83659 20.4871 -5.74352 -3.54766
lowerback 6.9816 -0.463763 3.08094
upperback 6.46529 -0.49341 -0.0969711
thorax 2.75167 -0.135586 -1.8048
lowerneck -18.6556 -1.36689 -1.34347
upperneck 39.2362 -1.06847 -1.39831
head 17.6301 -0.862023 -0.62476
rclavicle 4.96962e-015 -3.18055e-015
rhumerus -50.5031 58.5208 -76.4409
rradius 79.4602
rwrist -26.3686
rhand -10.6787 -44.7256
rfingers 7.12502
rthumb 15.33 -74.1374
lclavicle 4.96962e-015 -3.18055e-015
lhumerus -29.4024 -75.1383 67.8788
lradius 75.0817
lwrist 71.6768
lhand -36.014 -30.9242
lfingers 7.12502
lthumb -9.12333 -1.14151
rfemur -72.3429 -0.770855 18.1998
rtibia 35.3583
rfoot 37.461 0.333209
rtoes 4.19182
lfemur -54.3734 1.36657 -28.3954
ltibia 58.9753
lfoot -23.9318 5.39473
ltoes 13.2679
536
root 4.67827 15.911 1.83952 20.5284 -5.74673 -3.57671
lowerback 7.23101 -0.506575 3.05363
upperback 6.38122 -0.540895 -0.0904402
thorax 2.52306 -0.164825 -1.7785
lowerneck -18.5924 -1.33041 -1.25046
upperneck 39.1295 -1.00657 -1.50792
head 17.552 -0.839544 -0.676817
rclavicle 1.21259e-014 -6.75868e-015
rhumerus -51.5003 58.8407 -77.2168
rradius 79.2602
rwrist -25.9286
rhand -10.4109 -44.9151
rfingers 7.12502
rthumb 15.5879 -74.3069
lclavicle 1.21259e-014 -6.75868e-015
lhumerus -32.068 -75.3701 70.125
lradius 75.0081
lwrist 71.8083
lhand -36.2239 -32.1657
lfingers 7.12502
lthumb -9.32583 -2.392
rfemur -72.3841 -0.902222 18.4286
rtibia 35.3593
rfoot 37.5046 1.00283
rtoes 3.38242
lfemur -54.386 1.46037 -28.4132
ltibia 58.9312
lfoot -23.9252 5.27033
ltoes 13.291
